# xmcd CD database file
#
# Track frame offsets:
#	150
#	35337
#	63687
#	104287
#	124400
#	155925
#	172525
#	193525
#	223237
#	239350
#	261387
#	296125
#
# Disc length: 4403 seconds
#
# Revision: 1
# Processed by: cddbd v1.5.2PL0 Copyright (c) Steve Scherf et al.
# Submitted via: CDex 1.51
#
DISCID=bc11310c
DTITLE=Tony Scott and Bill Evans - Vol. 2002 - Tony Scott and Bill Evan
DYEAR=1957
DGENRE=Jazz
TTITLE0=Five
TTITLE1=Blues For Three Horns
TTITLE2=Lullaby Of The Leaves
TTITLE3=Portrait Of Ravi
TTITLE4=I Can't Get Started
TTITLE5=The Chant
TTITLE6=There Willnever Be Another You
TTITLE7=The Explorer
TTITLE8=I Remember You
TTITLE9=Blues For Five
TTITLE10=Third Moon
TTITLE11=Just One Of Those Things
EXTD=YEAR: 1957
EXTT0=
EXTT1=
EXTT2=
EXTT3=
EXTT4=
EXTT5=
EXTT6=
EXTT7=
EXTT8=
EXTT9=
EXTT10=
EXTT11=
PLAYORDER=
